<svg width="44" height="23" viewBox="0 0 44 23" fill="none" xmlns="http://www.w3.org/2000/svg">
<path fill-rule="evenodd" clip-rule="evenodd" d="M3.05176e-05 11.3871C3.05176e-05 10.2113 0.953241 9.25806 2.12906 9.25806H27.6775C28.8532 9.25806 29.8065 10.2113 29.8065 11.3871C29.8065 12.5629 28.8532 13.5161 27.6775 13.5161H2.12906C0.953241 13.5161 3.05176e-05 12.5629 3.05176e-05 11.3871Z" fill="black"/>
<path fill-rule="evenodd" clip-rule="evenodd" d="M3.05176e-05 2.12903C3.05176e-05 0.95321 0.75771 0 1.69233 0H42.3076C43.2424 0 44 0.95321 44 2.12903C44 3.30485 43.2424 4.25806 42.3076 4.25806H1.69233C0.75771 4.25806 3.05176e-05 3.30485 3.05176e-05 2.12903Z" fill="black"/>
<path fill-rule="evenodd" clip-rule="evenodd" d="M0 20.6451C0 19.4693 0.75768 18.5161 1.6923 18.5161H42.3076C43.2423 18.5161 44 19.4693 44 20.6451C44 21.8209 43.2423 22.7742 42.3076 22.7742H1.6923C0.75768 22.7742 0 21.8209 0 20.6451Z" fill="black"/>
</svg>
